<svg id="bulb" xmlns="http://www.w3.org/2000/svg" width="24.132" height="24.133" viewBox="0 0 24.132 24.133">
  <defs>
    <style>
      .cls-1 {
        fill: #f1f2f2;
      }

      .cls-2 {
        fill: #231f20;
      }

      .cls-3 {
        fill: #8dc63f;
      }
    </style>
  </defs>
  <path id="Path_3435" data-name="Path 3435" class="cls-1" d="M47.251,164.05h0a12.066,12.066,0,0,1-12.066-12.067h0a12.066,12.066,0,0,1,12.066-12.066h0a12.066,12.066,0,0,1,12.066,12.066h0A12.066,12.066,0,0,1,47.251,164.05Z" transform="translate(-35.185 -139.917)"/>
  <g id="Group_272" data-name="Group 272" transform="translate(-35.185 -139.917)">
    <g id="Group_269" data-name="Group 269">
      <path id="Path_5153" data-name="Path 5153" class="cls-1" d="M43.769,150.2a3.2,3.2,0,1,1,6.017,1.522l-.823,1.32-.271,1.842H45.243l-.316-1.842-.774-1.322A3.181,3.181,0,0,1,43.769,150.2Z"/>
      <path id="Path_5154" data-name="Path 5154" class="cls-2" d="M48.692,155.075H45.243a.193.193,0,0,1-.191-.16l-.309-1.808-.757-1.291a3.389,3.389,0,1,1,5.97,0l-.808,1.3-.265,1.8A.192.192,0,0,1,48.692,155.075Zm-3.287-.386h3.121l.247-1.677a.193.193,0,0,1,.026-.074l.823-1.32a3.008,3.008,0,1,0-5.3.009l.77,1.315a.189.189,0,0,1,.024.065Z"/>
    </g>
    <g id="Group_270" data-name="Group 270">
      <path id="Path_5155" data-name="Path 5155" class="cls-1" d="M45.884,151.511l1.087,3.419.918-3.419Z"/>
      <path id="Path_5156" data-name="Path 5156" class="cls-2" d="M46.971,155.122a.193.193,0,0,1-.184-.134L45.7,151.569a.193.193,0,0,1,.184-.251h2.005a.192.192,0,0,1,.186.243l-.918,3.419a.194.194,0,0,1-.182.142Zm-.823-3.418.807,2.539.682-2.539Z"/>
    </g>
    <g id="Group_271" data-name="Group 271">
      <rect id="Rectangle_74" data-name="Rectangle 74" class="cls-3" width="3.466" height="2.085" transform="translate(45.226 154.882)"/>
      <path id="Path_5157" data-name="Path 5157" class="cls-2" d="M48.692,157.159H45.226a.192.192,0,0,1-.193-.193v-2.084a.192.192,0,0,1,.193-.193h3.466a.192.192,0,0,1,.193.193v2.084A.192.192,0,0,1,48.692,157.159Zm-3.274-.386H48.5v-1.7H45.418Z"/>
    </g>
  </g>
</svg>
