<svg id="clock" xmlns="http://www.w3.org/2000/svg" width="24.132" height="24.133" viewBox="0 0 24.132 24.133">
  <defs>
    <style>
      .cls-1 {
        fill: #f1f2f2;
      }

      .cls-2 {
        fill: #8dc63f;
      }

      .cls-3 {
        fill: #231f20;
      }
    </style>
  </defs>
  <path id="Path_3437" data-name="Path 3437" class="cls-1" d="M118.751,164.05h0a12.066,12.066,0,0,1-12.066-12.067h0a12.066,12.066,0,0,1,12.066-12.066h0a12.066,12.066,0,0,1,12.066,12.066h0A12.066,12.066,0,0,1,118.751,164.05Z" transform="translate(-106.685 -139.917)"/>
  <g id="Group_282" data-name="Group 282" transform="translate(-106.685 -139.917)">
    <path id="Path_5168" data-name="Path 5168" class="cls-2" d="M124.165,151.983a5.414,5.414,0,1,1-5.414-5.414A5.414,5.414,0,0,1,124.165,151.983Z"/>
    <path id="Path_5169" data-name="Path 5169" class="cls-3" d="M118.751,157.59a5.606,5.606,0,1,1,5.606-5.607A5.614,5.614,0,0,1,118.751,157.59Zm0-10.828a5.221,5.221,0,1,0,5.221,5.221A5.228,5.228,0,0,0,118.751,146.762Z"/>
  </g>
  <g id="Group_283" data-name="Group 283" transform="translate(-106.685 -139.917)">
    <path id="Path_5170" data-name="Path 5170" class="cls-1" d="M122.9,151.983a4.148,4.148,0,1,1-4.148-4.148A4.148,4.148,0,0,1,122.9,151.983Z"/>
    <path id="Path_5171" data-name="Path 5171" class="cls-3" d="M118.751,156.324a4.34,4.34,0,1,1,4.341-4.341A4.345,4.345,0,0,1,118.751,156.324Zm0-8.3a3.955,3.955,0,1,0,3.955,3.955A3.96,3.96,0,0,0,118.751,148.028Z"/>
  </g>
  <g id="Group_284" data-name="Group 284" transform="translate(-106.685 -139.917)">
    <path id="Path_5172" data-name="Path 5172" class="cls-1" d="M121.568,153.254l-2.817-1.271v-2.044Z"/>
    <path id="Path_5173" data-name="Path 5173" class="cls-3" d="M121.568,153.447a.2.2,0,0,1-.079-.017l-2.817-1.271a.192.192,0,0,1-.114-.176V149.94a.193.193,0,1,1,.386,0v1.919l2.7,1.219a.193.193,0,0,1-.079.369Z"/>
  </g>
</svg>
