<svg id="Component_6_2" data-name="Component 6 – 2" xmlns="http://www.w3.org/2000/svg" width="24.132" height="24.133" viewBox="0 0 24.132 24.133">
  <defs>
    <style>
      .cls-1 {
        fill: #f1f2f2;
      }

      .cls-2 {
        fill: #8dc63f;
      }

      .cls-3 {
        fill: #231f20;
      }
    </style>
  </defs>
  <path id="Path_3439" data-name="Path 3439" class="cls-1" d="M190.251,164.05h0a12.066,12.066,0,0,1-12.066-12.067h0a12.066,12.066,0,0,1,12.066-12.066h0a12.066,12.066,0,0,1,12.066,12.066h0A12.066,12.066,0,0,1,190.251,164.05Z" transform="translate(-178.185 -139.917)"/>
  <path id="Path_5164" data-name="Path 5164" class="cls-2" d="M192.477,151.2h3.561v4.484h-1.482l0,.46v.247l0,.6-.373-.23-.154-.094-.343-.212-.073-.044-.4-.251-.032-.02-.384-.237-.126-.078-.227-.14h-4.422v-2.871Z" transform="translate(-178.185 -139.917)"/>
  <path id="Path_5165" data-name="Path 5165" class="cls-3" d="M194.562,157.179a.194.194,0,0,1-.1-.029l-2.068-1.278h-4.368a.193.193,0,0,1-.193-.193v-2.87a.193.193,0,1,1,.386,0v2.677h4.229a.189.189,0,0,1,.1.029l1.82,1.124,0-.959a.193.193,0,0,1,.193-.194h1.288v-4.1h-3.367a.193.193,0,1,1,0-.386h3.56a.193.193,0,0,1,.193.193v4.484a.192.192,0,0,1-.193.193h-1.288l.006,1.113a.191.191,0,0,1-.1.169A.2.2,0,0,1,194.562,157.179Z" transform="translate(-178.185 -139.917)"/>
  <path id="Path_5166" data-name="Path 5166" class="cls-1" d="M184.464,148.306v4.484h1.482l-.007,1.307,2.115-1.307h4.422v-4.484Z" transform="translate(-178.185 -139.917)"/>
  <path id="Path_5167" data-name="Path 5167" class="cls-3" d="M185.939,154.29a.2.2,0,0,1-.094-.024.192.192,0,0,1-.1-.17l.005-1.113h-1.288a.194.194,0,0,1-.193-.193v-4.484a.193.193,0,0,1,.193-.193h8.013a.192.192,0,0,1,.192.193v4.484a.193.193,0,0,1-.192.193h-4.368l-2.068,1.278A.186.186,0,0,1,185.939,154.29Zm-1.282-1.693h1.289a.194.194,0,0,1,.137.057.19.19,0,0,1,.056.137l-.005.959,1.819-1.124a.191.191,0,0,1,.1-.029h4.23v-4.1h-7.627Z" transform="translate(-178.185 -139.917)"/>
</svg>
