<svg id="Component_5_2" data-name="Component 5 – 2" xmlns="http://www.w3.org/2000/svg" width="24.132" height="24.133" viewBox="0 0 24.132 24.133">
  <defs>
    <style>
      .cls-1 {
        fill: #f1f2f2;
      }

      .cls-2 {
        fill: #231f20;
      }

      .cls-3 {
        fill: #8dc63f;
      }
    </style>
  </defs>
  <path id="Path_3438" data-name="Path 3438" class="cls-1" d="M154.5,164.05h0a12.066,12.066,0,0,1-12.066-12.067h0A12.066,12.066,0,0,1,154.5,139.917h0a12.066,12.066,0,0,1,12.066,12.066h0A12.066,12.066,0,0,1,154.5,164.05Z" transform="translate(-142.435 -139.917)"/>
  <g id="Group_254" data-name="Group 254" transform="translate(-142.435 -139.917)">
    <path id="Path_5110" data-name="Path 5110" class="cls-1" d="M152.23,150a2,2,0,1,1-2-2A2,2,0,0,1,152.23,150Z"/>
    <path id="Path_5111" data-name="Path 5111" class="cls-2" d="M150.23,152.193A2.193,2.193,0,1,1,152.423,150,2.2,2.2,0,0,1,150.23,152.193Zm0-4A1.808,1.808,0,1,0,152.038,150,1.809,1.809,0,0,0,150.23,148.193Z"/>
  </g>
  <g id="Group_255" data-name="Group 255" transform="translate(-142.435 -139.917)">
    <path id="Path_5112" data-name="Path 5112" class="cls-1" d="M152.277,154.674h-4.094v-.6a2.048,2.048,0,0,1,2.047-2.047h0a2.048,2.048,0,0,1,2.047,2.047Z"/>
    <path id="Path_5113" data-name="Path 5113" class="cls-2" d="M152.277,154.867h-4.094a.193.193,0,0,1-.193-.193v-.6a2.24,2.24,0,0,1,4.48,0v.6A.192.192,0,0,1,152.277,154.867Zm-3.9-.386h3.708v-.41a1.854,1.854,0,1,0-3.708,0Z"/>
  </g>
  <g id="Group_257" data-name="Group 257" transform="translate(-142.435 -139.917)">
    <path id="Path_5114" data-name="Path 5114" class="cls-1" d="M160.772,150a2,2,0,1,1-2-2A2,2,0,0,1,160.772,150Z"/>
    <path id="Path_5115" data-name="Path 5115" class="cls-2" d="M158.772,152.193A2.193,2.193,0,1,1,160.965,150,2.195,2.195,0,0,1,158.772,152.193Zm0-4A1.808,1.808,0,1,0,160.58,150,1.81,1.81,0,0,0,158.772,148.193Z"/>
  </g>
  <g id="Group_258" data-name="Group 258" transform="translate(-142.435 -139.917)">
    <path id="Path_5116" data-name="Path 5116" class="cls-1" d="M160.819,154.674h-4.094v-.6a2.048,2.048,0,0,1,2.047-2.047h0a2.047,2.047,0,0,1,2.047,2.047Z"/>
    <path id="Path_5117" data-name="Path 5117" class="cls-2" d="M160.819,154.867h-4.094a.193.193,0,0,1-.193-.193v-.6a2.24,2.24,0,0,1,4.48,0v.6A.192.192,0,0,1,160.819,154.867Zm-3.9-.386h3.708v-.41a1.854,1.854,0,0,0-3.708,0Z"/>
  </g>
  <g id="Group_260" data-name="Group 260" transform="translate(-142.435 -139.917)">
    <path id="Path_5118" data-name="Path 5118" class="cls-1" d="M157.15,150.483a2.649,2.649,0,1,1-2.649-2.65A2.65,2.65,0,0,1,157.15,150.483Z"/>
    <path id="Path_5119" data-name="Path 5119" class="cls-2" d="M154.5,153.326a2.842,2.842,0,1,1,2.842-2.843A2.847,2.847,0,0,1,154.5,153.326Zm0-5.3a2.457,2.457,0,1,0,2.456,2.457A2.46,2.46,0,0,0,154.5,148.026Z"/>
  </g>
  <g id="Group_261" data-name="Group 261" transform="translate(-142.435 -139.917)">
    <path id="Path_5120" data-name="Path 5120" class="cls-3" d="M157.212,156.674h-5.423v-.8a2.712,2.712,0,0,1,2.712-2.712h0a2.712,2.712,0,0,1,2.711,2.712Z"/>
    <path id="Path_5121" data-name="Path 5121" class="cls-2" d="M157.212,156.867h-5.423a.193.193,0,0,1-.193-.193v-.8a2.9,2.9,0,1,1,5.809,0v.8A.192.192,0,0,1,157.212,156.867Zm-5.23-.386h5.037v-.6a2.519,2.519,0,1,0-5.037,0Z"/>
  </g>
</svg>
