<svg id="Component_11_2" data-name="Component 11 – 2" xmlns="http://www.w3.org/2000/svg" width="137.185" height="28.097" viewBox="0 0 137.185 28.097">
  <defs>
    <style>
      .cls-1 {
        fill: #ed4f54;
      }

      .cls-2 {
        fill: #212121;
      }

      .cls-3 {
        fill: #668e19;
      }

      .cls-4 {
        fill: #ed7c76;
      }

      .cls-5 {
        fill: #ef4136;
      }

      .cls-6 {
        fill: #d1d3d4;
      }

      .cls-7 {
        fill: #8dc63f;
      }

      .cls-8 {
        fill: #ff831d;
      }

      .cls-9 {
        fill: #ffbd1a;
      }
    </style>
  </defs>
  <g id="Group_95" data-name="Group 95" transform="translate(-261.682 -191.686)">
    <path id="Path_2384" data-name="Path 2384" class="cls-1" d="M308.266,205.781a2.509,2.509,0,0,1,.185-1.047,1.222,1.222,0,0,1,.544-.589,1.883,1.883,0,0,1,.889-.191,3.155,3.155,0,0,1,.439.036v.653a2.44,2.44,0,0,0-.459-.041.914.914,0,0,0-.623.184.825.825,0,0,0-.223.6h.025a.64.64,0,0,1,.61-.359.794.794,0,0,1,.639.265,1.288,1.288,0,0,1-.06,1.541,1.223,1.223,0,0,1-1.658-.06A1.465,1.465,0,0,1,308.266,205.781Zm1.144.686a.269.269,0,0,0,.217-.1.5.5,0,0,0,.083-.32q0-.376-.291-.376a.307.307,0,0,0-.234.1.34.34,0,0,0-.089.237.583.583,0,0,0,.087.332A.26.26,0,0,0,309.41,206.467Z"/>
    <path id="Path_2385" data-name="Path 2385" class="cls-1" d="M313.034,205.546a2.086,2.086,0,0,1-.274,1.2.967.967,0,0,1-.841.381.954.954,0,0,1-.834-.4,2.055,2.055,0,0,1-.28-1.184,2.1,2.1,0,0,1,.274-1.208.966.966,0,0,1,.84-.384.956.956,0,0,1,.834.4A2.075,2.075,0,0,1,313.034,205.546Zm-1.4,0a2.634,2.634,0,0,0,.065.721c.043.131.116.2.219.2s.178-.068.221-.2a4.006,4.006,0,0,0,0-1.432c-.043-.138-.117-.206-.22-.206s-.176.066-.219.2A2.672,2.672,0,0,0,311.635,205.546Z"/>
    <path id="Path_2386" data-name="Path 2386" class="cls-1" d="M314.856,204.919a1.1,1.1,0,0,1-.209.719.722.722,0,0,1-.594.255.7.7,0,0,1-.576-.263,1.316,1.316,0,0,1-.005-1.425.71.71,0,0,1,.581-.251.728.728,0,0,1,.587.26A1.068,1.068,0,0,1,314.856,204.919Zm-.956.009a1.111,1.111,0,0,0,.04.35q.041.108.12.108c.054,0,.094-.035.12-.106a1.6,1.6,0,0,0,0-.7c-.026-.072-.066-.107-.12-.107s-.094.036-.121.109A1.132,1.132,0,0,0,313.9,204.928Zm2.5-.93-1.712,3.088h-.627L315.769,204Zm.809,2.15a1.094,1.094,0,0,1-.21.717.728.728,0,0,1-.6.255.7.7,0,0,1-.575-.263,1.313,1.313,0,0,1-.005-1.423.711.711,0,0,1,.58-.251.726.726,0,0,1,.587.26A1.058,1.058,0,0,1,317.2,206.148Zm-.957.009a1.08,1.08,0,0,0,.041.35q.039.108.12.108c.061,0,.1-.041.125-.123a1.621,1.621,0,0,0,0-.67c-.022-.082-.064-.123-.125-.123s-.1.036-.122.109A1.165,1.165,0,0,0,316.248,206.157Z"/>
  </g>
  <g id="Group_96" data-name="Group 96" transform="translate(-261.682 -191.686)">
    <path id="Path_2387" data-name="Path 2387" class="cls-2" d="M382.2,203.953a1.276,1.276,0,0,1,.759.2.643.643,0,0,1,.271.557.743.743,0,0,1-.126.43,1.043,1.043,0,0,1-.406.322,1.511,1.511,0,0,1,.484.388.7.7,0,0,1,.139.417.749.749,0,0,1-.3.637,1.345,1.345,0,0,1-.832.226,1.36,1.36,0,0,1-.834-.22.754.754,0,0,1-.289-.635.79.79,0,0,1,.129-.457,1.125,1.125,0,0,1,.433-.343,1.172,1.172,0,0,1-.358-.354.8.8,0,0,1-.113-.415.637.637,0,0,1,.277-.552A1.292,1.292,0,0,1,382.2,203.953Zm-.367,2.285a.261.261,0,0,0,.093.21.381.381,0,0,0,.258.079c.248,0,.371-.091.371-.272a.324.324,0,0,0-.081-.2,1.139,1.139,0,0,0-.29-.225.885.885,0,0,0-.27.2A.334.334,0,0,0,381.831,206.238Zm.363-1.683a.27.27,0,0,0-.181.062.2.2,0,0,0-.075.162c0,.121.082.228.247.321a.74.74,0,0,0,.206-.159.261.261,0,0,0,.054-.162.2.2,0,0,0-.074-.163A.272.272,0,0,0,382.194,204.555Z"/>
    <path id="Path_2388" data-name="Path 2388" class="cls-2" d="M385.839,205.545a2.077,2.077,0,0,1-.275,1.2.964.964,0,0,1-.84.381.952.952,0,0,1-.834-.4,2.055,2.055,0,0,1-.281-1.184,2.1,2.1,0,0,1,.275-1.208,1.089,1.089,0,0,1,1.674.017A2.076,2.076,0,0,1,385.839,205.545Zm-1.4,0a2.618,2.618,0,0,0,.066.721c.043.13.116.2.219.2s.177-.067.22-.2a3.946,3.946,0,0,0,0-1.432c-.043-.137-.116-.206-.219-.206s-.176.066-.219.2A2.661,2.661,0,0,0,384.439,205.545Z"/>
    <path id="Path_2389" data-name="Path 2389" class="cls-2" d="M387.661,204.918a1.1,1.1,0,0,1-.209.719.726.726,0,0,1-.6.255.7.7,0,0,1-.576-.263,1.316,1.316,0,0,1-.005-1.425.711.711,0,0,1,.581-.251.727.727,0,0,1,.587.26A1.063,1.063,0,0,1,387.661,204.918Zm-.956.009a1.111,1.111,0,0,0,.04.35q.039.108.12.108c.054,0,.094-.035.119-.106a1.6,1.6,0,0,0,0-.7c-.025-.072-.065-.107-.119-.107s-.1.036-.121.109A1.132,1.132,0,0,0,386.7,204.927Zm2.5-.929-1.713,3.087h-.627L388.574,204Zm.809,2.15a1.1,1.1,0,0,1-.21.716.728.728,0,0,1-.6.255.7.7,0,0,1-.575-.263,1.313,1.313,0,0,1-.005-1.423.711.711,0,0,1,.58-.251.727.727,0,0,1,.587.26A1.064,1.064,0,0,1,390.01,206.148Zm-.957.008a1.049,1.049,0,0,0,.041.35q.039.108.12.108c.06,0,.1-.041.125-.123a1.621,1.621,0,0,0,0-.67c-.023-.082-.065-.123-.125-.123s-.1.036-.122.109A1.132,1.132,0,0,0,389.053,206.156Z"/>
  </g>
  <g id="Group_97" data-name="Group 97" transform="translate(-261.682 -191.686)">
    <path id="Path_2390" data-name="Path 2390" class="cls-3" d="M345.033,207.085l1.06-2.393h-1.336V204h2.227v.492l-1.088,2.591Z"/>
    <path id="Path_2391" data-name="Path 2391" class="cls-3" d="M348.528,205.062a.954.954,0,0,1,.481.123.858.858,0,0,1,.333.35,1.093,1.093,0,0,1,.12.522,1.011,1.011,0,0,1-.312.794,1.388,1.388,0,0,1-.943.276,2.012,2.012,0,0,1-.883-.167v-.684a2.218,2.218,0,0,0,.415.14,1.8,1.8,0,0,0,.4.054.561.561,0,0,0,.356-.1.346.346,0,0,0,.125-.29.332.332,0,0,0-.127-.277.619.619,0,0,0-.384-.1,1.358,1.358,0,0,0-.424.074l-.307-.152.116-1.63h1.762v.694H348.2l-.038.408a1.859,1.859,0,0,1,.234-.035Z"/>
    <path id="Path_2392" data-name="Path 2392" class="cls-3" d="M351.33,204.918a1.1,1.1,0,0,1-.209.719.726.726,0,0,1-.6.255.7.7,0,0,1-.576-.263,1.316,1.316,0,0,1-.005-1.425.711.711,0,0,1,.581-.251.727.727,0,0,1,.587.26A1.063,1.063,0,0,1,351.33,204.918Zm-.956.009a1.111,1.111,0,0,0,.04.35q.039.108.12.108c.054,0,.094-.035.119-.106a1.6,1.6,0,0,0,0-.7c-.025-.072-.065-.107-.119-.107s-.1.036-.121.109A1.132,1.132,0,0,0,350.374,204.927Zm2.5-.929-1.713,3.087h-.627L352.243,204Zm.809,2.15a1.1,1.1,0,0,1-.21.716.728.728,0,0,1-.6.255.7.7,0,0,1-.575-.263,1.313,1.313,0,0,1-.005-1.423.711.711,0,0,1,.58-.251.727.727,0,0,1,.587.26A1.064,1.064,0,0,1,353.679,206.148Zm-.957.008a1.048,1.048,0,0,0,.041.35q.039.108.12.108c.06,0,.1-.041.125-.123a1.621,1.621,0,0,0,0-.67c-.023-.082-.065-.123-.125-.123s-.1.036-.122.109A1.132,1.132,0,0,0,352.722,206.156Z"/>
  </g>
  <path id="Path_2393" data-name="Path 2393" class="cls-4" d="M311.948,217.842a12.107,12.107,0,1,1,12.109-12.108A12.121,12.121,0,0,1,311.948,217.842Zm0-23.66A11.553,11.553,0,1,0,323.5,205.734,11.566,11.566,0,0,0,311.948,194.182Z" transform="translate(-261.682 -191.686)"/>
  <path id="Path_2394" data-name="Path 2394" class="cls-5" d="M311.948,219.783a14.049,14.049,0,1,1,0-28.1v4.436a9.613,9.613,0,1,0,8.465,14.173l3.9,2.109A14.044,14.044,0,0,1,311.948,219.783Z" transform="translate(-261.682 -191.686)"/>
  <path id="Path_2395" data-name="Path 2395" class="cls-6" d="M384.819,217.842a12.107,12.107,0,1,1,12.108-12.108A12.121,12.121,0,0,1,384.819,217.842Zm0-23.66a11.553,11.553,0,1,0,11.553,11.552A11.565,11.565,0,0,0,384.819,194.182Z" transform="translate(-261.682 -191.686)"/>
  <g id="Group_98" data-name="Group 98" transform="translate(-261.682 -191.686)">
    <path id="Path_2396" data-name="Path 2396" class="cls-3" d="M348.6,217.842a12.107,12.107,0,1,1,12.108-12.108A12.122,12.122,0,0,1,348.6,217.842Zm0-23.66a11.553,11.553,0,1,0,11.553,11.552A11.565,11.565,0,0,0,348.6,194.182Z"/>
  </g>
  <path id="Path_2397" data-name="Path 2397" class="cls-2" d="M384.819,219.783a14.049,14.049,0,0,1,0-28.1v4.436a9.61,9.61,0,1,0,7.972,4.239l3.676-2.482a14.05,14.05,0,0,1-11.648,21.9Z" transform="translate(-261.682 -191.686)"/>
  <path id="Path_2398" data-name="Path 2398" class="cls-7" d="M348.6,219.783a14.049,14.049,0,0,1,0-28.1v4.436a9.613,9.613,0,1,0,9.613,9.612h4.435A14.064,14.064,0,0,1,348.6,219.783Z" transform="translate(-261.682 -191.686)"/>
  <g id="Group_99" data-name="Group 99" transform="translate(-261.682 -191.686)">
    <path id="Path_2399" data-name="Path 2399" class="cls-8" d="M274.189,206.488h-.339v.6h-.825v-.6H271.8v-.612L273.078,204h.772v1.867h.339Zm-1.164-.623v-.359c0-.067,0-.158.008-.273a1.668,1.668,0,0,1,.012-.181h-.024a2.139,2.139,0,0,1-.162.3l-.342.509Z"/>
    <path id="Path_2400" data-name="Path 2400" class="cls-8" d="M275.657,205.063a.954.954,0,0,1,.481.123.858.858,0,0,1,.333.35,1.093,1.093,0,0,1,.12.522,1.011,1.011,0,0,1-.312.794,1.388,1.388,0,0,1-.943.276,2.012,2.012,0,0,1-.883-.167v-.684a2.292,2.292,0,0,0,.415.14,1.791,1.791,0,0,0,.4.054.561.561,0,0,0,.356-.1.347.347,0,0,0,.125-.29.332.332,0,0,0-.127-.277.619.619,0,0,0-.384-.1,1.364,1.364,0,0,0-.425.074l-.306-.152.116-1.631h1.762v.695h-1.052l-.038.408a1.862,1.862,0,0,1,.234-.035Z"/>
    <path id="Path_2401" data-name="Path 2401" class="cls-8" d="M278.459,204.919a1.1,1.1,0,0,1-.209.719.726.726,0,0,1-.6.255.7.7,0,0,1-.576-.263,1.316,1.316,0,0,1-.005-1.425.711.711,0,0,1,.581-.251.727.727,0,0,1,.587.26A1.063,1.063,0,0,1,278.459,204.919Zm-.956.009a1.111,1.111,0,0,0,.04.35q.039.108.12.108c.054,0,.094-.035.119-.106a1.6,1.6,0,0,0,0-.7c-.025-.072-.065-.107-.119-.107s-.1.036-.121.109A1.132,1.132,0,0,0,277.5,204.928ZM280,204l-1.713,3.088h-.627L279.372,204Zm.809,2.15a1.1,1.1,0,0,1-.21.717.728.728,0,0,1-.6.255.7.7,0,0,1-.575-.263,1.313,1.313,0,0,1-.005-1.423.709.709,0,0,1,.58-.251.727.727,0,0,1,.587.26A1.063,1.063,0,0,1,280.808,206.148Zm-.957.009a1.053,1.053,0,0,0,.041.35q.039.108.12.108c.06,0,.1-.041.125-.123a1.621,1.621,0,0,0,0-.67c-.023-.082-.065-.123-.125-.123s-.1.036-.122.109A1.132,1.132,0,0,0,279.851,206.157Z"/>
  </g>
  <g id="Group_100" data-name="Group 100" transform="translate(-261.682 -191.686)">
    <path id="Path_2402" data-name="Path 2402" class="cls-8" d="M275.729,217.842a12.107,12.107,0,1,1,12.108-12.108A12.121,12.121,0,0,1,275.729,217.842Zm0-23.66a11.553,11.553,0,1,0,11.553,11.552A11.565,11.565,0,0,0,275.729,194.182Z"/>
  </g>
  <path id="Path_2403" data-name="Path 2403" class="cls-9" d="M270.261,218.678a14.051,14.051,0,0,1,5.468-26.992v4.436a9.615,9.615,0,0,0-3.74,18.471Z" transform="translate(-261.682 -191.686)"/>
</svg>
