<svg id="Component_10_2" data-name="Component 10 – 2" xmlns="http://www.w3.org/2000/svg" width="17.25" height="17.25" viewBox="0 0 17.25 17.25">
  <defs>
    <style>
      .cls-1 {
        fill: #fff;
      }

      .cls-2 {
        fill: #d1d3d4;
      }
    </style>
  </defs>
  <path id="Path_1007" data-name="Path 1007" class="cls-1" d="M256.714,131h0a8.625,8.625,0,0,1-8.625-8.625h0a8.625,8.625,0,0,1,8.625-8.625h0a8.625,8.625,0,0,1,8.625,8.625h0A8.625,8.625,0,0,1,256.714,131Z" transform="translate(-248.089 -113.75)"/>
  <g id="Group_60" data-name="Group 60" transform="translate(6.207 4.838)">
    <path id="Path_2001" data-name="Path 2001" class="cls-2" d="M255.214,121.826a2.369,2.369,0,1,1,2.369-2.369A2.371,2.371,0,0,1,255.214,121.826Zm0-4.244a1.875,1.875,0,1,0,1.875,1.875A1.877,1.877,0,0,0,255.214,117.582Z" transform="translate(-252.796 -117.088)"/>
    <path id="Path_2002" data-name="Path 2002" class="cls-2" d="M257.633,124.662H252.8v-.886a2.418,2.418,0,1,1,4.837,0Zm-4.343-.494h3.849v-.392a1.925,1.925,0,1,0-3.849,0Z" transform="translate(-252.796 -117.088)"/>
  </g>
</svg>
