<svg id="hand" xmlns="http://www.w3.org/2000/svg" width="24.132" height="24.133" viewBox="0 0 24.132 24.133">
  <defs>
    <style>
      .cls-1 {
        fill: #f1f2f2;
      }

      .cls-2 {
        fill: #8dc63f;
      }

      .cls-3 {
        fill: #231f20;
      }
    </style>
  </defs>
  <path id="Path_3436" data-name="Path 3436" class="cls-1" d="M83,164.05h0a12.066,12.066,0,0,1-12.066-12.067h0A12.066,12.066,0,0,1,83,139.917h0a12.066,12.066,0,0,1,12.066,12.066h0A12.066,12.066,0,0,1,83,164.05Z" transform="translate(-70.935 -139.917)"/>
  <g id="Group_273" data-name="Group 273" transform="translate(-70.935 -139.917)">
    <path id="Rectangle_75" data-name="Rectangle 75" class="cls-2" d="M.363,0H4.079a0,0,0,0,1,0,0V6.178a0,0,0,0,1,0,0H.363A.363.363,0,0,1,0,5.815V.363A.363.363,0,0,1,.363,0Z" transform="translate(77.561 150.218)"/>
    <path id="Path_5158" data-name="Path 5158" class="cls-3" d="M81.64,156.589H77.924a.557.557,0,0,1-.556-.556v-5.452a.557.557,0,0,1,.556-.556H81.64a.193.193,0,0,1,.193.193V156.4A.194.194,0,0,1,81.64,156.589Zm-3.716-6.178a.171.171,0,0,0-.17.17v5.452a.171.171,0,0,0,.17.17h3.523v-5.792Z"/>
  </g>
  <g id="Group_274" data-name="Group 274" transform="translate(-70.935 -139.917)">
    <rect id="Rectangle_76" data-name="Rectangle 76" class="cls-1" width="2.521" height="7.398" rx="0.782" transform="translate(79.118 149.596)"/>
    <path id="Path_5159" data-name="Path 5159" class="cls-3" d="M80.858,157.186H79.9a.975.975,0,0,1-.975-.974v-5.834a.976.976,0,0,1,.975-.975h.958a.976.976,0,0,1,.975.975v5.834A.976.976,0,0,1,80.858,157.186Zm-.958-7.4a.589.589,0,0,0-.589.589v5.834a.589.589,0,0,0,.589.589h.958a.589.589,0,0,0,.589-.589v-5.834a.589.589,0,0,0-.589-.589Z"/>
  </g>
  <g id="Group_275" data-name="Group 275" transform="translate(-70.935 -139.917)">
    <path id="Path_5160" data-name="Path 5160" class="cls-1" d="M84.712,150.747s1.813-4.8-.395-3.575c0,2.048-2.677,3.575-2.677,3.575V156h6.021a.721.721,0,0,0,.709-.587L89.1,151.6a.721.721,0,0,0-.709-.857Z"/>
    <path id="Path_5161" data-name="Path 5161" class="cls-3" d="M87.661,156.19H81.64a.192.192,0,0,1-.193-.193v-5.25a.192.192,0,0,1,.1-.168c.026-.014,2.58-1.5,2.58-3.407a.193.193,0,0,1,.1-.169c.483-.267.854-.3,1.1-.08.659.571-.031,2.765-.338,3.631h3.4a.914.914,0,0,1,.9,1.086l-.724,3.806A.917.917,0,0,1,87.661,156.19Zm-5.828-.386h5.828a.53.53,0,0,0,.52-.43l.724-3.807a.528.528,0,0,0-.519-.627H84.712a.194.194,0,0,1-.18-.262c.465-1.23.94-3.118.541-3.463-.124-.107-.378-.017-.566.075-.086,1.873-2.185,3.267-2.674,3.566Z"/>
  </g>
  <g id="Group_276" data-name="Group 276" transform="translate(-70.935 -139.917)">
    <path id="Path_5162" data-name="Path 5162" class="cls-1" d="M80.94,155.435a.562.562,0,1,1-.561-.562A.561.561,0,0,1,80.94,155.435Z"/>
    <path id="Path_5163" data-name="Path 5163" class="cls-3" d="M80.379,156.19a.755.755,0,1,1,.754-.755A.755.755,0,0,1,80.379,156.19Zm0-1.124a.369.369,0,1,0,.369.369A.369.369,0,0,0,80.379,155.066Z"/>
  </g>
</svg>
