<svg id="our_dged" data-name="our dged" xmlns="http://www.w3.org/2000/svg" width="192.136" height="71.158" viewBox="0 0 192.136 71.158">
  <defs>
    <style>
      .cls-1 {
        fill: #f1f2f2;
      }

      .cls-2 {
        mix-blend-mode: multiply;
        isolation: isolate;
      }

      .cls-3 {
        fill: #fff;
      }

      .cls-4 {
        fill: #ffbd1a;
      }

      .cls-5 {
        fill: #ffd364;
      }

      .cls-6 {
        fill: #ffc200;
      }

      .cls-7 {
        fill: #668e19;
      }

      .cls-8 {
        fill: #8dc63f;
      }

      .cls-9 {
        fill: #bc1e1b;
      }

      .cls-10 {
        fill: #ef4136;
      }

      .cls-11 {
        fill: #231f20;
      }

      .cls-12 {
        fill: #182460;
      }
    </style>
  </defs>
  <rect id="Rectangle_48" data-name="Rectangle 48" class="cls-1" width="192.136" height="71.051"/>
  <g id="Group_157" data-name="Group 157" class="cls-2" transform="translate(-23.071 -185.25)">
    <path id="Path_4205" data-name="Path 4205" class="cls-1" d="M111.067,256.3,128,185.25h25.77l61.437,31Z"/>
  </g>
  <g id="Group_158" data-name="Group 158" class="cls-2" transform="translate(-23.071 -185.25)">
    <path id="Path_4206" data-name="Path 4206" class="cls-1" d="M111.067,256.3l104.14-14.8v14.8Z"/>
  </g>
  <g id="Group_306" data-name="Group 306" transform="translate(-23.071 -185.25)">
    <g id="Group_286" data-name="Group 286">
      <rect id="Rectangle_77" data-name="Rectangle 77" class="cls-3" width="37.261" height="25.737" transform="translate(127.933 201.345)"/>
      <rect id="Rectangle_78" data-name="Rectangle 78" class="cls-4" width="30.423" height="19.678" transform="translate(131.351 204.374)"/>
      <path id="Path_5174" data-name="Path 5174" class="cls-1" d="M127.933,227.082l-3.755,6.13h44.771l-3.755-6.13Z"/>
      <rect id="Rectangle_79" data-name="Rectangle 79" class="cls-3" width="44.771" height="3.262" transform="translate(124.178 233.212)"/>
    </g>
    <g id="Group_287" data-name="Group 287">
      <path id="Path_5175" data-name="Path 5175" class="cls-5" d="M158.466,245.292v-2.974l-2.51-1.75a1.775,1.775,0,0,1-.594-.7l-1.246-2.665a1.065,1.065,0,0,1,.553-1.434h0a1.065,1.065,0,0,1,1.352.481l.884,1.658h.677a.8.8,0,0,0,.8-.8v-5.954a.711.711,0,0,1,.711-.711h.869v-.134a.877.877,0,0,1,.878-.878h.351a.876.876,0,0,1,.877.878h.863a.624.624,0,0,1,.625.624v.287h.366a.971.971,0,0,1,.971.971v7.388a1.948,1.948,0,0,1-.449,1.244l-1.273,1.534v2.634Z"/>
      <path id="Path_5176" data-name="Path 5176" class="cls-6" d="M160.7,229.439a.878.878,0,0,0-.739.867v.134h-.869a.711.711,0,0,0-.711.711V237.1a.8.8,0,0,1-.8.8H156.9l-.884-1.658a1.065,1.065,0,0,0-1.352-.481h0a1.065,1.065,0,0,0-.553,1.434l1.246,2.665a1.775,1.775,0,0,0,.594.7l2.51,1.75v2.974l2.233-.145Z"/>
      <rect id="Rectangle_80" data-name="Rectangle 80" class="cls-7" width="3.148" height="10.315" transform="translate(157.55 246.093)"/>
      <rect id="Rectangle_81" data-name="Rectangle 81" class="cls-8" width="10.315" height="3.148" transform="translate(160.659 256.408) rotate(-90)"/>
      <rect id="Rectangle_82" data-name="Rectangle 82" class="cls-9" width="3.838" height="3.75" transform="translate(156.909 248.183) rotate(-90)"/>
      <rect id="Rectangle_83" data-name="Rectangle 83" class="cls-10" width="3.838" height="3.75" transform="translate(160.659 248.183) rotate(-90)"/>
    </g>
    <g id="Group_288" data-name="Group 288">
      <path id="Path_5177" data-name="Path 5177" class="cls-6" d="M135.274,245.292v-2.974l2.511-1.75a1.765,1.765,0,0,0,.593-.7l1.247-2.665a1.064,1.064,0,0,0-.554-1.434h0a1.064,1.064,0,0,0-1.351.481l-.884,1.658h-.677a.8.8,0,0,1-.8-.8v-5.954a.712.712,0,0,0-.711-.711h-.87v-.134a.876.876,0,0,0-.877-.878h-.351a.877.877,0,0,0-.878.878h-.862a.624.624,0,0,0-.625.624v.287h-.366a.97.97,0,0,0-.97.971v7.388a1.947,1.947,0,0,0,.448,1.244l1.273,1.534v2.634Z"/>
      <path id="Path_5178" data-name="Path 5178" class="cls-5" d="M133.042,229.439a.877.877,0,0,1,.738.867v.134h.87a.712.712,0,0,1,.711.711V237.1a.8.8,0,0,0,.8.8h.677l.884-1.658a1.064,1.064,0,0,1,1.351-.481h0a1.064,1.064,0,0,1,.554,1.434l-1.247,2.665a1.765,1.765,0,0,1-.593.7l-2.511,1.75v2.974l-2.232-.145Z"/>
      <rect id="Rectangle_84" data-name="Rectangle 84" class="cls-8" width="10.315" height="3.148" transform="translate(133.042 256.408) rotate(-90)"/>
      <rect id="Rectangle_85" data-name="Rectangle 85" class="cls-7" width="3.148" height="10.315" transform="translate(129.934 246.093)"/>
      <rect id="Rectangle_86" data-name="Rectangle 86" class="cls-10" width="3.838" height="3.75" transform="translate(133.082 248.183) rotate(-90)"/>
      <rect id="Rectangle_87" data-name="Rectangle 87" class="cls-9" width="3.838" height="3.751" transform="translate(129.331 248.183) rotate(-90)"/>
    </g>
    <path id="Path_5179" data-name="Path 5179" class="cls-11" d="M172.49,207.027h-.4v-.464h.4Zm-1.517,0h-.4v-.464h.4Zm-1.516,0h-.4v-.464h.4Zm-1.517,0h-.4v-.464h.4Zm-1.516,0h-.4v-.464h.4Zm-1.516,0h-.4v-.464h.4Zm-1.517,0h-.4v-.464h.4Zm-1.517,0h-.4v-.464h.4Zm-1.516,0h-.4v-.464h.4Zm-1.516,0h-.4v-.464h.4Zm-1.516,0h-.4v-.464h.4Zm-1.517,0h-.4v-.464h.4Zm-1.517,0h-.4v-.464h.4Zm-1.516,0h-.4v-.464h.4Zm-1.516,0h-.4v-.464h.4Zm-1.516,0h-.4v-.464h.4Zm-1.517,0h-.4v-.464h.4Zm-1.517,0h-.4v-.464h.4Zm-1.516,0h-.4v-.464h.4Zm-1.516,0h-.4v-.464h.4Zm-1.516,0h-.4v-.464h.4Zm-1.517,0h-.4v-.464h.4Zm32.815-.608H173v-.4h.464Zm0-1.516H173v-.4h.464Zm0-1.517H173v-.4h.464Zm0-1.516H173v-.4h.464Zm0-1.516H173v-.4h.464Zm0-1.517H173v-.4h.464Zm0-1.516H173v-.4h.464Zm3.977-.511h-.4v-.464h.4Zm-1.517,0h-.4v-.464h.4Zm-1.516,0H174v-.464h.4Z"/>
    <path id="Path_5180" data-name="Path 5180" class="cls-11" d="M184.621,211h-.4v-.464h.4Zm-1.517,0h-.4v-.464h.4Zm-1.516,0h-.4v-.464h.4Zm-1.516,0h-.4v-.464h.4Zm-1.517,0h-.4v-.464h.4Zm-1.516,0h-.4v-.464h.4Zm-1.517,0h-.4v-.464h.4Zm-1.516,0h-.4v-.464h.4Zm-1.516,0h-.4v-.464h.4Zm-1.517,0h-.4v-.464h.4Zm-1.517,0h-.4v-.464h.4Zm-1.516,0h-.4v-.464h.4Zm-1.516,0h-.4v-.464h.4Zm-1.516,0h-.4v-.464h.4Zm-1.517,0h-.4v-.464h.4Zm-1.517,0h-.4v-.464h.4Zm-1.516,0h-.4v-.464h.4Zm-1.516,0h-.4v-.464h.4Zm-1.516,0h-.4v-.464h.4Zm-1.517,0h-.4v-.464h.4Zm-1.517,0h-.4v-.464h.4Zm-1.516,0h-.4v-.464h.4Zm-1.516,0h-.4v-.464h.4Zm-1.516,0h-.4v-.464h.4Zm-1.517,0h-.4v-.464h.4Zm-1.517,0h-.4v-.464h.4Zm-1.516,0h-.4v-.464h.4Zm-1.516,0h-.4v-.464h.4Zm-1.516,0h-.4v-.464h.4Zm-1.517,0h-.4v-.464h.4Z"/>
    <path id="Path_5181" data-name="Path 5181" class="cls-11" d="M189.919,222.782h-.4v-.464h.4Zm-1.516,0H188v-.464h.4Zm-1.516,0h-.4v-.464h.4Zm-1.517,0h-.4v-.464h.4Zm-1.516,0h-.4v-.464h.4Zm-1.517,0h-.4v-.464h.4Zm-1.516,0h-.4v-.464h.4Zm-.908-.608h-.464v-.4h.464Zm0-1.516h-.464v-.4h.464Zm0-1.516h-.464v-.4h.464Zm0-1.517h-.464v-.4h.464Zm0-1.517h-.464v-.4h.464Zm0-1.516h-.464V214.2h.226l-.006-.232h.244Zm-1.358-.159h-.4v-.464h.4Zm-1.516,0h-.4v-.464h.4Zm-1.517,0h-.4v-.464h.4Zm-1.516,0h-.4v-.464h.4Zm-1.516,0h-.4v-.464h.4Zm-1.517,0h-.4v-.464h.4Zm-1.517,0h-.4v-.464h.4Zm-1.516,0h-.4v-.464h.4Zm-1.516,0h-.4v-.464h.4Zm-1.516,0h-.4v-.464h.4Zm-1.517,0h-.4v-.464h.4Zm-1.517,0h-.4v-.464h.4Zm-1.516,0h-.4v-.464h.4Zm-1.516,0h-.4v-.464h.4Zm-1.516,0h-.4v-.464h.4Zm-1.517,0h-.4v-.464h.4Zm-1.517,0h-.4v-.464h.4Zm-1.516,0h-.4v-.464h.4Zm-1.516,0h-.4v-.464h.4Zm-1.516,0h-.4v-.464h.4Zm-1.517,0h-.4v-.464h.4Zm-1.517,0h-.4v-.464h.4Zm-1.516,0h-.4v-.464h.4Zm-1.516,0h-.4v-.464h.4Zm-1.516,0h-.4v-.464h.4Zm-1.517,0h-.4v-.464h.4Z"/>
    <path id="Path_5182" data-name="Path 5182" class="cls-11" d="M177.153,234.87h-.4V234.4h.4Zm1.517,0h-.4V234.4h.4Zm1.516,0h-.4V234.4h.4Zm2.631,0V234.4h.4v.465Zm-1.114,0h-.4V234.4h.4Zm-5.09-.973h-.464v-.4h.464Zm0-1.517h-.464v-.4h.464Zm0-1.517h-.464v-.4h.464Zm0-1.516h-.464v-.4h.464Zm0-1.516h-.464v-.4h.464Zm0-1.517h-.464v-.4h.464Zm0-1.516h-.464v-.4h.464Zm0-1.517h-.464v-.4h.464Zm0-1.516h-.464v-.4h.464Zm0-1.516h-.464v-.4h.464Zm0-1.516h-.464v-.4h.464Zm-1.091-.426h-.4v-.464h.4Zm-1.516,0h-.4v-.464h.4Zm-1.516,0h-.4v-.464h.4Zm-1.517,0h-.4v-.464h.4Zm-1.516,0h-.4v-.464h.4Zm-1.517,0h-.4v-.464h.4Zm-1.516,0h-.4v-.464h.4Zm-1.516,0h-.4v-.464h.4Zm-1.517,0h-.4v-.464h.4Zm-1.517,0h-.4v-.464h.4Zm-1.516,0h-.4v-.464h.4Zm-1.516,0h-.4v-.464h.4Zm-1.516,0h-.4v-.464h.4Zm-1.517,0h-.4v-.464h.4Zm-1.517,0h-.4v-.464h.4Zm-1.516,0h-.4v-.464h.4Zm-1.516,0h-.4v-.464h.4Zm-1.516,0h-.4v-.464h.4Zm-1.517,0h-.4v-.464h.4Zm-1.517,0h-.4v-.464h.4Zm-1.516,0h-.4v-.464h.4Zm-1.516,0h-.4v-.464h.4Zm-1.516,0h-.4v-.464h.4Zm-1.517,0h-.4v-.464h.4Z"/>
    <path id="Path_5183" data-name="Path 5183" class="cls-6" d="M185.783,210.767a1.188,1.188,0,1,1-1.188-1.188A1.188,1.188,0,0,1,185.783,210.767Z"/>
    <path id="Path_5184" data-name="Path 5184" class="cls-6" d="M179.727,196.578a1.188,1.188,0,1,1-1.187-1.187A1.188,1.188,0,0,1,179.727,196.578Z"/>
    <path id="Path_5185" data-name="Path 5185" class="cls-6" d="M191.3,222.55a1.188,1.188,0,1,1-1.188-1.188A1.188,1.188,0,0,1,191.3,222.55Z"/>
    <path id="Path_5186" data-name="Path 5186" class="cls-6" d="M185.491,234.634a1.188,1.188,0,1,1-1.187-1.188A1.188,1.188,0,0,1,185.491,234.634Z"/>
    <g id="Group_289" data-name="Group 289">
      <path id="Path_5187" data-name="Path 5187" class="cls-11" d="M189.254,198.971h-7.235v-5.594h7.235Zm-6.926-.309h6.617v-4.976h-6.617Z"/>
      <path id="Path_5188" data-name="Path 5188" class="cls-11" d="M189.254,201.03h-7.235v-2.368h7.235Zm-6.926-.309h6.617v-1.75h-6.617Z"/>
      <rect id="Rectangle_88" data-name="Rectangle 88" class="cls-11" width="2.281" height="0.31" transform="translate(185.08 199.404)"/>
      <rect id="Rectangle_89" data-name="Rectangle 89" class="cls-11" width="3.116" height="0.31" transform="translate(185.08 199.988)"/>
      <path id="Path_5189" data-name="Path 5189" class="cls-7" d="M186.627,195.378a1.091,1.091,0,1,1-1.091-1.091A1.09,1.09,0,0,1,186.627,195.378Z"/>
      <path id="Path_5190" data-name="Path 5190" class="cls-7" d="M186.653,197.928h-2.234V197.6a1.117,1.117,0,0,1,1.117-1.117h0a1.117,1.117,0,0,1,1.117,1.117Z"/>
      <path id="Path_5191" data-name="Path 5191" class="cls-11" d="M183.673,200.535l-.071-.036c-.007,0-.652-.348-.652-.754a.453.453,0,0,1,.45-.486.535.535,0,0,1,.273.093.529.529,0,0,1,.272-.093.453.453,0,0,1,.45.486c0,.408-.645.751-.651.754Zm-.273-.966c-.1,0-.141.1-.141.176,0,.124.239.33.414.438.174-.108.413-.313.413-.438,0-.03-.007-.176-.141-.176a.321.321,0,0,0-.161.088l-.111.115-.111-.114A.319.319,0,0,0,183.4,199.569Z"/>
    </g>
    <g id="Group_292" data-name="Group 292">
      <g id="Group_290" data-name="Group 290">
        <path id="Path_5192" data-name="Path 5192" class="cls-11" d="M188.5,237.666l-1.43-4.182,3.236-1.111.1.293-2.944,1.01,1.23,3.6,1.894-.65.1.293Z"/>
        <path id="Path_5193" data-name="Path 5193" class="cls-11" d="M188.9,238.836l-.5-1.462,2.186-.751.1.293-1.894.649.3.878L193.314,237l-.062-.184.294-.1.158.476Z"/>
        <path id="Path_5194" data-name="Path 5194" class="cls-7" d="M190.36,233.77l-.06-.039-.45,1.47-.55-.3-.39,1.229,1.45-.5Z"/>
      </g>
      <g id="Group_291" data-name="Group 291">
        <path id="Path_5195" data-name="Path 5195" class="cls-11" d="M195.283,235.686h-5.077V231.27h5.077Zm-4.767-.308h4.458v-3.8h-4.458Z"/>
        <path id="Path_5196" data-name="Path 5196" class="cls-11" d="M194.01,236.924h-3.8v-1.548h5.08v.994h-.31v-.686h-4.46v.931h3.5Z"/>
        <path id="Path_5197" data-name="Path 5197" class="cls-7" d="M191.082,234.364l.77-1.039.427.47.9-1.252,1.271,1.821Z"/>
      </g>
      <path id="Path_5198" data-name="Path 5198" class="cls-11" d="M195.3,238.795h-1.516V237.08a.868.868,0,0,1,.867-.867h.888v-.574l2.064,1.331-2.064,1.332v-.574h-.159a.08.08,0,0,0-.08.081Zm-1.207-.309h.9v-.677a.39.39,0,0,1,.39-.39h.468v.314l1.183-.763-1.183-.763v.315h-1.2a.559.559,0,0,0-.558.558Z"/>
    </g>
    <g id="Group_293" data-name="Group 293">
      <path id="Path_5199" data-name="Path 5199" class="cls-11" d="M194.2,213.4h-6.055v-5.69h7.35v4.975h-.31v-4.666h-6.73v5.071H194.2Z"/>
      <path id="Path_5200" data-name="Path 5200" class="cls-11" d="M195.49,209.218h-7.346v-1.51h7.346Zm-7.037-.31h6.728v-.891h-6.728Z"/>
      <path id="Path_5201" data-name="Path 5201" class="cls-7" d="M190.927,209.88l2.1,1.211-2.1,1.21Z"/>
      <path id="Path_5202" data-name="Path 5202" class="cls-11" d="M189.21,208.463a.171.171,0,1,1-.17-.171A.17.17,0,0,1,189.21,208.463Z"/>
      <path id="Path_5203" data-name="Path 5203" class="cls-11" d="M189.763,208.463a.171.171,0,1,1-.17-.171A.17.17,0,0,1,189.763,208.463Z"/>
      <path id="Path_5204" data-name="Path 5204" class="cls-11" d="M190.316,208.463a.17.17,0,1,1-.17-.171A.17.17,0,0,1,190.316,208.463Z"/>
      <path id="Path_5205" data-name="Path 5205" class="cls-11" d="M194.122,214.339a.241.241,0,0,1-.229-.314l.215-.659-.561-.408a.241.241,0,0,1,.141-.435h.693l.215-.658a.25.25,0,0,1,.457,0l.214.658h.692a.241.241,0,0,1,.142.435l-.561.408.214.658a.24.24,0,0,1-.37.269l-.56-.407-.561.407A.235.235,0,0,1,194.122,214.339Zm.7-.779a.245.245,0,0,1,.141.046l.429.312-.164-.5a.24.24,0,0,1,.088-.269l.429-.312h-.531a.24.24,0,0,1-.228-.165l-.164-.505-.164.5a.239.239,0,0,1-.228.166H193.9l.429.312a.241.241,0,0,1,.088.268l-.165.505.43-.312A.242.242,0,0,1,194.824,213.56Z"/>
    </g>
    <path id="Path_5206" data-name="Path 5206" class="cls-11" d="M176.233,245.643h-.373v-.465h.373Zm-1.487,0h-.4v-.465h.4Zm-1.517,0h-.4v-.465h.4Zm-.472-1.045h-.464v-.4h.464Zm0-1.516h-.464v-.4h.464Zm0-1.517h-.464v-.4h.464Zm0-1.516h-.464v-.4h.464Zm0-1.517h-.464v-.4h.464Zm0-1.516h-.464v-.4h.464Zm0-1.516h-.464v-.4h.464Zm0-1.517h-.464v-.4h.464Zm0-1.516h-.464v-.4h.464Zm0-1.517h-.464v-.4h.464Zm0-1.516h-.464v-.4h.464Zm0-1.516h-.464v-.4h.464Zm0-1.517h-.464V226h.464Zm-.845-.671h-.4v-.464h.4Zm-1.517,0h-.4v-.464h.4Zm-1.516,0h-.351v-.515h.464v.283h-.113Zm.113-1.629h-.464v-.4h.464Zm0-1.517h-.464v-.4h.464Zm-1.052-.464h-.4v-.464h.4Zm-1.516,0h-.4v-.464h.4Zm-1.516,0h-.4v-.464h.4Zm-1.517,0h-.4v-.464h.4Zm-1.517,0h-.4v-.464h.4Zm-1.516,0h-.4v-.464h.4Zm-1.516,0h-.4v-.464h.4Zm-1.516,0h-.4v-.464h.4Zm-1.517,0h-.4v-.464h.4Zm-1.517,0h-.4v-.464h.4Zm-1.516,0h-.4v-.464h.4Zm-1.516,0h-.4v-.464h.4Zm-1.516,0h-.4v-.464h.4Zm-1.517,0h-.4v-.464h.4Zm-1.517,0h-.4v-.464h.4Zm-1.516,0h-.4v-.464h.4Zm-1.516,0h-.4v-.464h.4Zm-1.516,0h-.4v-.464h.4Zm-1.517,0h-.4v-.464h.4Z"/>
    <g id="Group_298" data-name="Group 298">
      <g id="Group_294" data-name="Group 294">
        <path id="Path_5207" data-name="Path 5207" class="cls-7" d="M186.54,244.72a1.254,1.254,0,0,1-2.49.21,1.59,1.59,0,0,0,.45-1.11.127.127,0,0,0-.01-.06,1.217,1.217,0,0,1,.79-.29A1.253,1.253,0,0,1,186.54,244.72Z"/>
        <path id="Path_5208" data-name="Path 5208" class="cls-7" d="M186.57,247.27v.37h-2.03v-.49a1.532,1.532,0,0,0-.19-.76,1.268,1.268,0,0,1,.93-.4A1.285,1.285,0,0,1,186.57,247.27Z"/>
      </g>
      <path id="Path_5209" data-name="Path 5209" class="cls-11" d="M182.862,245.608a1.793,1.793,0,1,1,1.793-1.793A1.794,1.794,0,0,1,182.862,245.608Zm0-3.277a1.485,1.485,0,1,0,1.484,1.484A1.486,1.486,0,0,0,182.862,242.331Z"/>
      <path id="Path_5210" data-name="Path 5210" class="cls-11" d="M182.26,247.794h-1.225v-.644a1.794,1.794,0,0,1,.187-.8l.276.138a1.492,1.492,0,0,0-.153.661v.335h.915Z"/>
      <path id="Path_5211" data-name="Path 5211" class="cls-11" d="M184.7,247.794H182.86v-.309h1.525v-.335a1.374,1.374,0,0,0-.17-.684,1.493,1.493,0,0,0-1.355-.842,1.435,1.435,0,0,0-1,.4l-.045.043h-.062l-.005-.16-.1-.106a1.738,1.738,0,0,1,1.217-.484,1.8,1.8,0,0,1,1.629,1.006,1.676,1.676,0,0,1,.206.829Z"/>
      <g id="Group_295" data-name="Group 295">
        <path id="Path_5212" data-name="Path 5212" class="cls-11" d="M180.992,249.653c-.048,0-.1,0-.146-.005a2.027,2.027,0,0,1-1.186-3.553,2.049,2.049,0,0,1,1.472-.492,2.028,2.028,0,0,1-.14,4.05Zm-.005-3.745a1.7,1.7,0,0,0-1.124.421h0a1.717,1.717,0,1,0,1.247-.417C181.069,245.909,181.028,245.908,180.987,245.908Zm0,3.143c-.034,0-.068,0-.1,0a1.425,1.425,0,0,1-.834-2.5,1.4,1.4,0,0,1,1.034-.345,1.425,1.425,0,0,1-.1,2.846Zm0-2.54a1.12,1.12,0,1,0,.081,0Q181.028,246.511,180.987,246.511Z"/>
        <rect id="Rectangle_90" data-name="Rectangle 90" class="cls-11" width="0.985" height="0.309" transform="translate(178.638 249.464) rotate(-41.29)"/>
        <path id="Path_5213" data-name="Path 5213" class="cls-11" d="M177.256,251.375l-.036,0a.486.486,0,0,1-.336-.168.492.492,0,0,1,.049-.694l1.238-1.075a.492.492,0,0,1,.645.744l-1.238,1.075A.493.493,0,0,1,177.256,251.375Zm1.238-1.749a.183.183,0,0,0-.12.045l-1.238,1.074a.181.181,0,0,0-.063.125.183.183,0,0,0,.044.132.185.185,0,0,0,.126.063.157.157,0,0,0,.131-.044l1.239-1.076a.182.182,0,0,0,.018-.256A.18.18,0,0,0,178.494,249.626Z"/>
      </g>
      <g id="Group_296" data-name="Group 296">
        <rect id="Rectangle_91" data-name="Rectangle 91" class="cls-11" width="0.31" height="1.877" transform="translate(178.783 243.467)"/>
        <rect id="Rectangle_92" data-name="Rectangle 92" class="cls-11" width="1.877" height="0.309" transform="translate(177.999 244.251)"/>
      </g>
      <g id="Group_297" data-name="Group 297">
        <rect id="Rectangle_93" data-name="Rectangle 93" class="cls-11" width="0.31" height="1.387" transform="translate(184.659 248.806)"/>
        <rect id="Rectangle_94" data-name="Rectangle 94" class="cls-11" width="1.387" height="0.309" transform="translate(184.12 249.345)"/>
      </g>
      <path id="Path_5214" data-name="Path 5214" class="cls-11" d="M184.7,247.64h-.31v-.49a1.374,1.374,0,0,0-.17-.684l.27-.152a1.682,1.682,0,0,1,.21.836Z"/>
    </g>
    <path id="Path_5215" data-name="Path 5215" class="cls-6" d="M177.421,245.41a1.188,1.188,0,1,1-1.188-1.187A1.188,1.188,0,0,1,177.421,245.41Z"/>
    <g id="Group_299" data-name="Group 299">
      <path id="Path_5216" data-name="Path 5216" class="cls-11" d="M200.57,222.275a.413.413,0,0,1-.135-.027l.093-.295h0a.25.25,0,0,0,.04.011c.14,0,.3-.273.3-.625s-.164-.625-.3-.625a.165.165,0,0,0-.04.012l-.1-.293a.4.4,0,0,1,.14-.029c.345,0,.615.411.615.935S200.915,222.275,200.57,222.275Z"/>
      <path id="Path_5217" data-name="Path 5217" class="cls-11" d="M200.64,224.947,199.562,224a4.328,4.328,0,0,0-3.205-1.441h-.09l-.41-.731H195.5l.18-.32-.179-.321h.358l.41-.731h.09a4.324,4.324,0,0,0,3.205-1.441l1.078-.946Zm-4.191-2.7a4.7,4.7,0,0,1,3.317,1.517l.564.5v-5.511l-.564.495a4.7,4.7,0,0,1-3.317,1.518l-.423.732.007.011-.006.011h.012Z"/>
      <path id="Path_5218" data-name="Path 5218" class="cls-11" d="M196.412,226.048h-2.645v-3.575H195.5Zm-2.335-.309h1.937l-.753-2.956h-1.184Z"/>
      <rect id="Rectangle_95" data-name="Rectangle 95" class="cls-7" width="3.51" height="2.718" transform="translate(193.049 220.149)"/>
    </g>
    <g id="Group_300" data-name="Group 300">
      <path id="Path_5219" data-name="Path 5219" class="cls-12" d="M134.188,206.3a.474.474,0,0,1-.112.315.641.641,0,0,1-.325.192v.007q.495.063.495.468a.509.509,0,0,1-.218.434,1.022,1.022,0,0,1-.606.158,1.815,1.815,0,0,1-.3-.023,1.486,1.486,0,0,1-.293-.084v-.443a1.156,1.156,0,0,0,.264.1,1.089,1.089,0,0,0,.248.032.506.506,0,0,0,.256-.05.167.167,0,0,0,.08-.154.173.173,0,0,0-.042-.125.259.259,0,0,0-.135-.066,1.063,1.063,0,0,0-.243-.023h-.121v-.4h.124q.406,0,.406-.208a.127.127,0,0,0-.06-.116.3.3,0,0,0-.161-.038.745.745,0,0,0-.392.127l-.222-.356a1.077,1.077,0,0,1,.321-.155,1.431,1.431,0,0,1,.377-.046.833.833,0,0,1,.481.122A.387.387,0,0,1,134.188,206.3Z"/>
      <path id="Path_5220" data-name="Path 5220" class="cls-12" d="M135.284,206.55a.609.609,0,0,1,.307.078.55.55,0,0,1,.214.224.706.706,0,0,1,.076.334.643.643,0,0,1-.2.508.886.886,0,0,1-.6.177,1.293,1.293,0,0,1-.565-.107v-.438a1.48,1.48,0,0,0,.266.09,1.143,1.143,0,0,0,.254.035.365.365,0,0,0,.229-.063.223.223,0,0,0,.079-.186.213.213,0,0,0-.081-.177.4.4,0,0,0-.246-.064.872.872,0,0,0-.271.048l-.2-.1.074-1.043h1.127v.445h-.673l-.024.26a1.039,1.039,0,0,1,.15-.022C135.231,206.55,135.259,206.55,135.284,206.55Z"/>
      <path id="Path_5221" data-name="Path 5221" class="cls-12" d="M137.1,206.458a.7.7,0,0,1-.134.46.466.466,0,0,1-.381.163.451.451,0,0,1-.368-.169.839.839,0,0,1,0-.911.454.454,0,0,1,.371-.161.467.467,0,0,1,.376.166A.682.682,0,0,1,137.1,206.458Zm-.612.005a.706.706,0,0,0,.026.225c.017.045.042.068.077.068s.06-.022.076-.067a1.025,1.025,0,0,0,0-.45c-.016-.046-.042-.069-.076-.069s-.061.023-.078.07A.711.711,0,0,0,136.492,206.463Zm1.6-.594-1.1,1.975h-.4l1.1-1.975Zm.517,1.375a.707.707,0,0,1-.134.459.468.468,0,0,1-.38.162.446.446,0,0,1-.368-.168.839.839,0,0,1,0-.91.456.456,0,0,1,.372-.16.464.464,0,0,1,.375.166A.678.678,0,0,1,138.606,207.244Zm-.612,0a.706.706,0,0,0,.026.225c.017.046.043.068.077.068s.066-.026.08-.079a1.007,1.007,0,0,0,0-.428c-.014-.053-.041-.079-.08-.079s-.061.024-.078.07A.747.747,0,0,0,137.994,207.249Z"/>
    </g>
    <g id="Group_301" data-name="Group 301">
      <path id="Path_5222" data-name="Path 5222" class="cls-12" d="M134.011,211.459h-.542v-1.045c0-.127,0-.244.008-.349a1.213,1.213,0,0,1-.124.127l-.224.185-.277-.34.678-.553h.481Z"/>
      <path id="Path_5223" data-name="Path 5223" class="cls-12" d="M135.284,210.165a.6.6,0,0,1,.307.079.542.542,0,0,1,.214.223.706.706,0,0,1,.076.334.643.643,0,0,1-.2.508.886.886,0,0,1-.6.177,1.293,1.293,0,0,1-.565-.107v-.438a1.479,1.479,0,0,0,.266.09,1.142,1.142,0,0,0,.254.035.365.365,0,0,0,.229-.063.223.223,0,0,0,.079-.186.214.214,0,0,0-.081-.177.4.4,0,0,0-.246-.063.9.9,0,0,0-.271.047l-.2-.1.074-1.043h1.127v.445h-.673l-.024.26a1.208,1.208,0,0,1,.15-.022Z"/>
      <path id="Path_5224" data-name="Path 5224" class="cls-12" d="M137.1,210.073a.7.7,0,0,1-.134.46.463.463,0,0,1-.381.163.448.448,0,0,1-.368-.169.839.839,0,0,1,0-.911.454.454,0,0,1,.371-.16.464.464,0,0,1,.376.166A.678.678,0,0,1,137.1,210.073Zm-.612.006a.7.7,0,0,0,.026.224c.017.046.042.069.077.069s.06-.023.076-.068a.7.7,0,0,0,.025-.225.713.713,0,0,0-.025-.225c-.016-.046-.042-.069-.076-.069s-.061.024-.078.07A.718.718,0,0,0,136.492,210.079Zm1.6-.6-1.1,1.975h-.4l1.1-1.975Zm.517,1.375a.705.705,0,0,1-.134.459.468.468,0,0,1-.38.162.448.448,0,0,1-.368-.167.841.841,0,0,1,0-.911.456.456,0,0,1,.372-.16.464.464,0,0,1,.375.166A.679.679,0,0,1,138.606,210.859Zm-.612.006a.7.7,0,0,0,.026.224c.017.046.043.069.077.069s.066-.027.08-.079a1.012,1.012,0,0,0,0-.429c-.014-.052-.041-.079-.08-.079s-.061.024-.078.071A.743.743,0,0,0,137.994,210.865Z"/>
    </g>
    <g id="Group_302" data-name="Group 302">
      <path id="Path_5225" data-name="Path 5225" class="cls-12" d="M134.254,215.194h-1.433v-.351l.482-.488c.138-.144.228-.242.27-.295a.657.657,0,0,0,.089-.136.3.3,0,0,0,.024-.118.155.155,0,0,0-.049-.122.2.2,0,0,0-.141-.044.376.376,0,0,0-.188.053,1.368,1.368,0,0,0-.216.157l-.293-.343a1.548,1.548,0,0,1,.257-.2.936.936,0,0,1,.226-.09,1.1,1.1,0,0,1,.275-.031.81.81,0,0,1,.342.068.538.538,0,0,1,.234.192.5.5,0,0,1,.083.28.771.771,0,0,1-.029.215.754.754,0,0,1-.09.194,1.321,1.321,0,0,1-.161.2q-.1.1-.429.4v.014h.747Z"/>
      <path id="Path_5226" data-name="Path 5226" class="cls-12" d="M135.284,213.9a.61.61,0,0,1,.307.079.544.544,0,0,1,.214.224.7.7,0,0,1,.076.334.642.642,0,0,1-.2.507.881.881,0,0,1-.6.177,1.309,1.309,0,0,1-.565-.106v-.438a1.407,1.407,0,0,0,.266.089,1.087,1.087,0,0,0,.254.035.365.365,0,0,0,.229-.063.219.219,0,0,0,.079-.185.211.211,0,0,0-.081-.177.391.391,0,0,0-.246-.064.9.9,0,0,0-.271.047l-.2-.1.074-1.043h1.127v.445h-.673l-.024.26a1.451,1.451,0,0,1,.15-.022Z"/>
      <path id="Path_5227" data-name="Path 5227" class="cls-12" d="M137.1,213.809a.7.7,0,0,1-.134.46.466.466,0,0,1-.381.162.45.45,0,0,1-.368-.168.84.84,0,0,1,0-.912.454.454,0,0,1,.371-.16.467.467,0,0,1,.376.166A.68.68,0,0,1,137.1,213.809Zm-.612,0a.7.7,0,0,0,.026.224c.017.046.042.069.077.069s.06-.023.076-.067a1.03,1.03,0,0,0,0-.451c-.016-.046-.042-.069-.076-.069s-.061.024-.078.071A.711.711,0,0,0,136.492,213.814Zm1.6-.6-1.1,1.975h-.4l1.1-1.975Zm.517,1.376a.7.7,0,0,1-.134.458.465.465,0,0,1-.38.163.446.446,0,0,1-.368-.168.841.841,0,0,1,0-.911.459.459,0,0,1,.372-.16.464.464,0,0,1,.375.167A.678.678,0,0,1,138.606,214.6Zm-.612.005a.7.7,0,0,0,.026.224c.017.046.043.069.077.069s.066-.026.08-.079a1.007,1.007,0,0,0,0-.428c-.014-.053-.041-.079-.08-.079s-.061.023-.078.07A.743.743,0,0,0,137.994,214.6Z"/>
    </g>
    <g id="Group_303" data-name="Group 303">
      <path id="Path_5228" data-name="Path 5228" class="cls-12" d="M134.011,218.869h-.542v-1.045c0-.127,0-.243.008-.349a1.122,1.122,0,0,1-.124.127l-.224.185-.277-.34.678-.553h.481Z"/>
      <path id="Path_5229" data-name="Path 5229" class="cls-12" d="M135.911,217.884a1.327,1.327,0,0,1-.176.768.7.7,0,0,1-1.071-.01,1.315,1.315,0,0,1-.18-.758,1.342,1.342,0,0,1,.176-.772.616.616,0,0,1,.538-.246.607.607,0,0,1,.532.256A1.317,1.317,0,0,1,135.911,217.884Zm-.9,0a1.682,1.682,0,0,0,.042.461q.042.126.141.126c.066,0,.113-.044.141-.13a1.747,1.747,0,0,0,.041-.457,1.723,1.723,0,0,0-.042-.46c-.028-.088-.074-.132-.14-.132s-.113.043-.141.127A1.716,1.716,0,0,0,135.015,217.884Z"/>
      <path id="Path_5230" data-name="Path 5230" class="cls-12" d="M137.1,217.483a.7.7,0,0,1-.134.46.463.463,0,0,1-.381.163.45.45,0,0,1-.368-.168.84.84,0,0,1,0-.912.454.454,0,0,1,.371-.16.464.464,0,0,1,.376.166A.679.679,0,0,1,137.1,217.483Zm-.612.006a.7.7,0,0,0,.026.224c.017.046.042.069.077.069s.06-.023.076-.068a.7.7,0,0,0,.025-.225.713.713,0,0,0-.025-.225c-.016-.046-.042-.069-.076-.069s-.061.024-.078.071A.711.711,0,0,0,136.492,217.489Zm1.6-.6-1.1,1.975h-.4l1.1-1.975Zm.517,1.376a.7.7,0,0,1-.134.458.468.468,0,0,1-.38.163.449.449,0,0,1-.368-.168.841.841,0,0,1,0-.911.459.459,0,0,1,.372-.16.467.467,0,0,1,.375.166A.682.682,0,0,1,138.606,218.27Zm-.612,0a.7.7,0,0,0,.026.224c.017.046.043.069.077.069s.066-.026.08-.079a.81.81,0,0,0,.023-.214.818.818,0,0,0-.023-.215c-.014-.052-.041-.079-.08-.079s-.061.024-.078.071A.743.743,0,0,0,137.994,218.275Z"/>
    </g>
    <g id="Group_304" data-name="Group 304">
      <path id="Path_5231" data-name="Path 5231" class="cls-12" d="M134.011,222.545h-.542V221.5c0-.126,0-.243.008-.348a1.213,1.213,0,0,1-.124.127l-.224.185-.277-.34.678-.553h.481Z"/>
      <path id="Path_5232" data-name="Path 5232" class="cls-12" d="M135.284,221.251a.6.6,0,0,1,.307.079.542.542,0,0,1,.214.223.706.706,0,0,1,.076.334.643.643,0,0,1-.2.508.886.886,0,0,1-.6.177,1.293,1.293,0,0,1-.565-.107v-.438a1.4,1.4,0,0,0,.266.09,1.142,1.142,0,0,0,.254.035.365.365,0,0,0,.229-.063.223.223,0,0,0,.079-.186.214.214,0,0,0-.081-.177.4.4,0,0,0-.246-.063.9.9,0,0,0-.271.047l-.2-.1.074-1.043h1.127v.445h-.673l-.024.26a1.208,1.208,0,0,1,.15-.022Z"/>
      <path id="Path_5233" data-name="Path 5233" class="cls-12" d="M137.1,221.159a.7.7,0,0,1-.134.46.466.466,0,0,1-.381.163.448.448,0,0,1-.368-.169.839.839,0,0,1,0-.911.454.454,0,0,1,.371-.16.464.464,0,0,1,.376.166A.678.678,0,0,1,137.1,221.159Zm-.612.006a.7.7,0,0,0,.026.224c.017.046.042.069.077.069s.06-.023.076-.068a.7.7,0,0,0,.025-.225.713.713,0,0,0-.025-.225c-.016-.046-.042-.069-.076-.069s-.061.024-.078.07A.718.718,0,0,0,136.492,221.165Zm1.6-.595-1.1,1.975h-.4l1.1-1.975Zm.517,1.375a.705.705,0,0,1-.134.459.468.468,0,0,1-.38.162.446.446,0,0,1-.368-.168.839.839,0,0,1,0-.91.456.456,0,0,1,.372-.16.464.464,0,0,1,.375.166A.679.679,0,0,1,138.606,221.945Zm-.612.006a.7.7,0,0,0,.026.224c.017.046.043.069.077.069s.066-.027.08-.079a1.012,1.012,0,0,0,0-.429c-.014-.052-.041-.079-.08-.079s-.061.024-.078.07A.75.75,0,0,0,137.994,221.951Z"/>
    </g>
    <g id="Group_305" data-name="Group 305">
      <rect id="Rectangle_96" data-name="Rectangle 96" class="cls-7" width="15.523" height="25.506" transform="translate(143.011 198.547)"/>
      <rect id="Rectangle_97" data-name="Rectangle 97" class="cls-8" width="11.177" height="3.562" transform="translate(156.343 210.414) rotate(180)"/>
      <rect id="Rectangle_98" data-name="Rectangle 98" class="cls-8" width="11.177" height="4.372" transform="translate(156.343 205.248) rotate(180)"/>
      <rect id="Rectangle_99" data-name="Rectangle 99" class="cls-8" width="11.177" height="1.781" transform="translate(156.343 213.535) rotate(180)"/>
      <rect id="Rectangle_100" data-name="Rectangle 100" class="cls-8" width="11.177" height="6.004" transform="translate(156.343 221.196) rotate(180)"/>
    </g>
  </g>
</svg>
